# xmcd CD database file
#
# Track frame offsets:
#	150
#	12282
#	26227
#	52037
#	71875
#	90527
#	109547
#
# Disc length: 1826 seconds
#
# Revision: 1
# Processed by: cddbd v1.5.2PL0 Copyright (c) Steve Scherf et al.
# Submitted via: CDex 1.70beta2
#
DISCID=59072007
DTITLE=The Modern Jazz Quartet - The sheriff
DYEAR=1964
DGENRE=Jazz
TTITLE0=The sheriff
TTITLE1=In a crowd
TTITLE2=Bachianas Brasileras
TTITLE3=Mean to me
TTITLE4=Natural affection
TTITLE5=Donnie's theme
TTITLE6=Carnival
EXTD=YEAR: 1964
EXTT0=
EXTT1=
EXTT2=
EXTT3=
EXTT4=
EXTT5=
EXTT6=
PLAYORDER=
